<svg xmlns="http://www.w3.org/2000/svg" viewBox="0 0 100 100"><path d="M0 2.385V87h100V2.385H0zm92.308 76.924H7.692V17.77h84.615v61.539z"/><path d="M44.45 27.012l-2.826 11.126h6.039l2.796-11.126h6.664l-2.886 11.126h5.742v6.396H52.66l-2.202 8.716h6.098v6.396h-7.675l-2.796 11.096h-6.574l2.796-11.096H36.21l-2.797 11.096H26.84l2.796-11.096h-6.158V53.25h7.735l2.201-8.716h-6.515v-6.396h8.152l2.796-11.126h6.604m1.636 17.522h-6.098l-2.202 8.716h6.099l2.201-8.716m18.761 17.79h7.943v8.419h-7.943v-8.419m0-35.996h7.943v19.485l-.982 10.62h-5.92l-1.041-10.62V26.328" style="text-align:start"/></svg>