<svg xmlns="http://www.w3.org/2000/svg" width="128" height="128" viewBox="0 0 128 128"><path d="M63.994 126c-29.34 0-53.14-7.937-53.14-17.715V90.57c0-1.538.772-3.004 1.88-4.426C18.66 93.772 39.263 99.427 64 99.427s45.34-5.655 51.266-13.283c1.108 1.427 1.874 2.888 1.874 4.426v17.715C117.14 118.057 93.34 126 64 126zm0-35.43c-29.34 0-53.14-7.943-53.14-17.715V55.14c0-.937.354-1.852.833-2.756a9.34 9.34 0 0 1 1.047-1.676C18.66 58.331 39.263 63.992 64 63.992s45.34-5.66 51.266-13.284a9.34 9.34 0 0 1 1.047 1.676c.474.904.832 1.819.832 2.756v17.715c0 9.772-23.8 17.715-53.14 17.715zm0-35.425c-29.34 0-53.14-7.937-53.14-17.715v-8.857-8.858C10.855 9.937 34.655 2 63.995 2s53.14 7.937 53.14 17.715V37.43c0 9.778-23.8 17.715-53.14 17.715zm0-44.282c-19.567 0-35.424 3.958-35.424 8.858s15.863 8.857 35.424 8.857c19.568 0 35.425-3.957 35.425-8.857 0-4.9-15.863-8.858-35.425-8.858z" fill="#f60"/></svg>