<svg xmlns="http://www.w3.org/2000/svg" viewBox="0 0 128 128"><path d="M2 1v125h125V1zm99.666 59.252c2.734 0 5.52.247 8.36.742 2.838.495 5.742 1.237 8.71 2.227v7.695c-2.994-1.432-5.82-2.5-8.476-3.203-2.656-.703-5.222-1.055-7.696-1.055-4.296 0-7.617.834-9.96 2.5-2.318 1.667-3.477 4.037-3.477 7.11 0 2.578.768 4.53 2.305 5.859 1.562 1.302 4.505 2.357 8.828 3.164l4.765.977c5.886 1.12 10.222 3.099 13.008 5.937 2.813 2.813 4.219 6.589 4.219 11.328 0 5.651-1.901 9.935-5.703 12.852-3.776 2.916-9.323 4.375-16.64 4.375-2.761 0-5.704-.313-8.829-.938-3.099-.625-6.315-1.55-9.648-2.773v-8.125c3.203 1.797 6.34 3.15 9.414 4.062 3.073.912 6.093 1.368 9.062 1.368 4.505 0 7.982-.886 10.43-2.657 2.448-1.77 3.672-4.297 3.672-7.578 0-2.864-.886-5.104-2.656-6.719-1.745-1.614-4.623-2.825-8.633-3.632l-4.805-.938c-5.885-1.172-10.143-3.008-12.773-5.508-2.63-2.5-3.946-5.976-3.946-10.43 0-5.156 1.81-9.218 5.43-12.187 3.646-2.969 8.659-4.453 15.039-4.453zM32.783 37.307H82.12v6.64H61.416v51.68h-7.93v-51.68H32.783z" fill="#06f"/></svg>